<svg xmlns="http://www.w3.org/2000/svg" viewBox="0 0 1180.93 447.52"><defs><style>.cls-1{fill:#295a99;}</style></defs><g id="Livello_2" data-name="Livello 2"><g id="Livello_1-2" data-name="Livello 1"><path class="cls-1" d="M76.62,353.14H66.49v53.43q-.13,4,.32,13.34t.57,11h-.5L16.12,353.14H3.89v93.1h10V393.32q0-11.46-1-25.21h.51l50.88,78.13H76.62Z"/><polygon class="cls-1" points="197.65 353.14 197.65 446.25 249.55 446.25 249.55 436.56 208.47 436.56 208.47 402.31 247.06 402.31 247.06 392.75 208.47 392.75 208.47 362.76 249.55 362.76 249.55 353.14 197.65 353.14"/><polygon class="cls-1" points="372.04 353.14 372.04 362.76 401.53 362.76 401.53 446.25 412.35 446.25 412.35 362.76 441.83 362.76 441.83 353.14 372.04 353.14"/><path class="cls-1" d="M646,353.14H634.56l-14.64,57.38a191.69,191.69,0,0,0-4.59,22,173.45,173.45,0,0,0-5.16-22.29l-17.51-57.12H581.2l-16.69,56.62a158.59,158.59,0,0,0-5.09,22.79,211.73,211.73,0,0,0-4.46-21.9l-14.71-57.51H528.79l24.77,93.1h10.7l18.21-62a145.6,145.6,0,0,0,4.46-18.4,59.49,59.49,0,0,0,1.72,7.58q1.65,6.3,3,10.44l18.79,62.34h10.7Z"/><path class="cls-1" d="M805,399.57q0,19-7.9,28.72T773.72,438q-15.35,0-23.4-9.78t-8.06-28.68q0-18.66,8.06-28.43t23.53-9.78q15.4,0,23.27,9.71t7.87,28.5m11.46,0q0-22.43-11.27-35.15t-31.33-12.74q-20.64,0-31.85,12.51t-11.2,35.25q0,22.92,11.17,35.5t31.75,12.58q20.12,0,31.42-12.8t11.31-35.15"/><path class="cls-1" d="M972,380q0,9.11-5.35,13.65t-16.81,4.56H935v-35.6h14.07q12,0,17.48,4.08T972,380m11.21-.58q0-13.17-8.18-19.74t-25.32-6.56H924.17v93.11H935V407.53h19.42L977,446.25h12.8l-25.28-41.84q18.72-6.5,18.72-25"/><polygon class="cls-1" points="1159.73 353.14 1117.51 399.31 1117.51 353.14 1106.68 353.14 1106.68 446.25 1117.51 446.25 1117.51 409.76 1127.25 401.09 1161.19 446.25 1173.93 446.25 1135.08 393.58 1172.53 353.14 1159.73 353.14"/><path class="cls-1" d="M404.93,21.27V3.53h-209V21.27c0,12.8,9.31,22.26,21.12,22.26h61.88V274.88l22.57-.05c13.5,0,20.43-9.94,20.43-19.29V41.43l64.28,0c11.89,0,18.72-7.33,18.72-20.12"/><path class="cls-1" d="M842.93,3.53V274.88l22.07-.05c13.32,0,19.93-9.7,19.93-19.29v-106h67.44c11.6,0,16.56-9.39,16.56-22.6v-17.4h-84V41.43l74.7,0c12.08,0,19.3-7.52,19.3-20.12V3.53Z"/><path class="cls-1" d="M1044.93,3.53V274.88l22.07-.05c13.32,0,19.93-9.7,19.93-19.29v-106h67.31c11.68,0,16.69-9.39,16.69-22.6v-17.4h-84V41.43l74.7,0c12.08,0,19.3-7.52,19.3-20.12V3.53Z"/><path class="cls-1" d="M141.8,136.64C127.09,124,107,119.33,93.15,114.29c-29.61-11-50.77-13-50.77-37.89,0-20.76,17.44-37,39.71-37,8.92,0,18.39,3.26,28.81,7.77l2.2,1a32.14,32.14,0,0,0,12.78,2.61c13.22,0,24.87-7.71,30.38-20.12L157.42,28l-2.14-1.88a44.12,44.12,0,0,0-4-3C128.33,7.76,103.45,0,81.15,0,35.65,0,0,33.87,0,77.1c0,53.57,39.65,62.77,70.45,74,30.64,11.32,52.26,17,52.26,42.45,0,21.41-21,38.17-43.94,38.17-9.2,0-19-3.36-29.71-8l-2.26-1a33.06,33.06,0,0,0-13.18-2.69C20,220.06,8,228,2.3,240.79l-1.2,2.7,2.21,1.94a46.17,46.17,0,0,0,4.13,3.14c23.66,15.77,52.31,23.76,75.29,23.76,46.91,0,83.66-34.91,83.66-79.49,0-24.26-8-42-24.59-56.2"/><path class="cls-1" d="M549.65,3.53c-12.35,0-21.9,4.76-26.87,14.32L389.05,276.53h37.58c8.34,0,16.14-6.65,22-17.83L582.22,3.53Z"/><path class="cls-1" d="M658.17,20.6c-5.82-11.17-13.62-17.07-22-17.07H598.63L732.36,261.46c5,9.56,14.52,15.07,26.87,15.07H791.8Z"/></g></g></svg>